<?xml version="1.0" encoding="utf-8"?>
<!-- Generator: Adobe Illustrator 16.0.0, SVG Export Plug-In . SVG Version: 6.00 Build 0)  -->
<!DOCTYPE svg PUBLIC "-//W3C//DTD SVG 1.1//EN" "http://www.w3.org/Graphics/SVG/1.1/DTD/svg11.dtd">
<svg version="1.1" id="airbnb_1_" xmlns="http://www.w3.org/2000/svg" xmlns:xlink="http://www.w3.org/1999/xlink" x="0px" y="0px"
	 width="88px" height="28px" viewBox="0 0 88 28" enable-background="new 0 0 88 28" xml:space="preserve">
<g id="airbnb">
	<g>
		<path fill="#FFFFFF" d="M24.268,7.351c0.211,0.261,0.464,0.457,0.76,0.589S25.648,8.138,26,8.138
			c0.434-0.527,0.803-1.013,1.107-1.455s0.554-0.845,0.747-1.208s0.334-0.688,0.422-0.972s0.132-0.534,0.132-0.751
			c0-0.188-0.042-0.384-0.127-0.589s-0.201-0.409-0.347-0.611s-0.318-0.394-0.514-0.575s-0.409-0.342-0.637-0.479
			s-0.464-0.247-0.708-0.329s-0.485-0.123-0.725-0.123c-0.287,0-0.541,0.07-0.76,0.211s-0.403,0.366-0.549,0.677
			s-0.258,0.718-0.334,1.222s-0.114,1.122-0.114,1.854c0,0.521,0.06,0.977,0.18,1.366S24.057,7.09,24.268,7.351z M51.848,10.159
			c-0.475,0-0.928,0.101-1.361,0.303s-0.813,0.472-1.139,0.809s-0.584,0.724-0.777,1.16s-0.291,0.89-0.291,1.358
			c0,0.146,0.01,0.287,0.027,0.422s0.047,0.284,0.088,0.448c0.322,0.1,0.59,0.209,0.804,0.329s0.384,0.267,0.51,0.439
			s0.214,0.38,0.264,0.62s0.075,0.533,0.075,0.879c0,0.393-0.052,0.807-0.154,1.243s-0.238,0.867-0.408,1.292
			s-0.368,0.829-0.594,1.213s-0.461,0.723-0.707,1.016s-0.494,0.525-0.743,0.698s-0.485,0.26-0.708,0.26
			c-0.105,0-0.197-0.043-0.276-0.128s-0.142-0.256-0.188-0.514s-0.082-0.626-0.105-1.104s-0.035-1.108-0.035-1.894
			c0-0.322,0.014-0.721,0.043-1.195s0.07-0.989,0.123-1.543s0.117-1.128,0.193-1.723s0.158-1.17,0.246-1.727
			c0.732-1.025,1.382-1.959,1.947-2.8s1.059-1.604,1.48-2.289s0.777-1.297,1.064-1.833s0.52-1.015,0.698-1.437
			s0.306-0.791,0.382-1.107s0.115-0.595,0.115-0.835c0-0.434-0.055-0.805-0.163-1.112s-0.264-0.56-0.466-0.756
			s-0.447-0.341-0.734-0.435s-0.611-0.141-0.975-0.141c-0.574,0-1.147,0.168-1.719,0.505s-1.127,0.806-1.666,1.406
			s-1.057,1.315-1.555,2.145s-0.963,1.739-1.394,2.729s-0.823,2.039-1.178,3.146s-0.658,2.241-0.91,3.401s-0.447,2.326-0.584,3.498
			c-0.072,0.612-0.123,1.216-0.157,1.813c-0.014,0.019-0.026,0.04-0.041,0.059c-0.346,0.451-0.691,0.87-1.037,1.257
			s-0.687,0.736-1.024,1.05s-0.653,0.58-0.949,0.8s-0.565,0.39-0.809,0.51s-0.45,0.181-0.62,0.181c-0.24,0-0.403-0.081-0.488-0.242
			s-0.127-0.37-0.127-0.628c0-0.223,0.042-0.495,0.127-0.817s0.198-0.674,0.338-1.055s0.305-0.781,0.492-1.2
			s0.384-0.833,0.589-1.243c0.293-0.58,0.529-1.09,0.708-1.529s0.268-0.841,0.268-1.204c0-0.217-0.034-0.413-0.101-0.589
			s-0.195-0.342-0.382-0.497s-0.448-0.306-0.782-0.452s-0.765-0.296-1.292-0.448c-0.311-0.088-0.621-0.19-0.932-0.308
			s-0.565-0.229-0.765-0.334c0.24-0.404,0.541-0.747,0.901-1.028s0.757-0.539,1.191-0.773c0.07-0.223,0.105-0.463,0.105-0.721
			c0-0.246-0.05-0.465-0.149-0.655s-0.239-0.352-0.417-0.483s-0.394-0.232-0.646-0.303s-0.53-0.105-0.835-0.105
			c-0.34,0-0.718,0.092-1.134,0.276s-0.839,0.433-1.27,0.743s-0.85,0.669-1.257,1.076s-0.769,0.837-1.085,1.288
			s-0.571,0.908-0.765,1.371s-0.29,0.905-0.29,1.327c0,0.346,0.054,0.637,0.163,0.874s0.236,0.438,0.382,0.603
			c-0.152,0.369-0.311,0.707-0.475,1.015s-0.338,0.605-0.523,0.893c-0.024,0.037-0.051,0.075-0.076,0.113
			c-0.519,0.721-1.005,1.356-1.445,1.868c-0.501,0.583-0.943,1.054-1.327,1.411s-0.708,0.613-0.971,0.769s-0.457,0.233-0.58,0.233
			c-0.164,0-0.29-0.041-0.378-0.123s-0.132-0.223-0.132-0.422c0-0.205,0.029-0.437,0.088-0.694s0.149-0.562,0.272-0.914
			s0.277-0.761,0.461-1.227s0.403-1.009,0.655-1.63c0.164-0.381,0.322-0.756,0.475-1.125s0.287-0.726,0.404-1.068
			s0.211-0.663,0.281-0.962s0.105-0.565,0.105-0.8c0-0.352-0.016-0.67-0.048-0.954s-0.11-0.525-0.233-0.725
			s-0.303-0.354-0.541-0.462s-0.564-0.162-0.98-0.162c-0.369,0-0.762,0.097-1.178,0.29s-0.825,0.449-1.226,0.769
			s-0.785,0.685-1.151,1.095s-0.69,0.833-0.971,1.27s-0.504,0.87-0.668,1.301s-0.246,0.822-0.246,1.174
			c0,0.363,0.023,0.741,0.07,1.134c0.01,0.087,0.032,0.167,0.047,0.251c-0.442,0.599-0.872,1.146-1.278,1.604
			c-0.516,0.58-0.984,1.058-1.406,1.433s-0.791,0.65-1.107,0.826s-0.565,0.264-0.747,0.264c-0.07,0-0.133-0.009-0.189-0.026
			s-0.103-0.056-0.141-0.114s-0.066-0.143-0.083-0.251s-0.026-0.253-0.026-0.435c0-0.234,0.031-0.557,0.092-0.967
			s0.161-0.929,0.299-1.556s0.316-1.371,0.536-2.232s0.488-1.857,0.804-2.988c0.146-0.504,0.249-0.967,0.308-1.389
			s0.088-0.75,0.088-0.984c0-0.316-0.082-0.646-0.246-0.989s-0.406-0.656-0.725-0.94s-0.713-0.52-1.182-0.707
			s-1.011-0.281-1.626-0.281c-0.252,0-0.489,0.038-0.712,0.114s-0.404,0.193-0.545,0.352l-0.114,2.092
			c-0.088-0.094-0.202-0.16-0.343-0.198s-0.337-0.057-0.589-0.057c-0.598,0-1.213,0.147-1.846,0.443s-1.248,0.703-1.846,1.222
			s-1.162,1.131-1.692,1.837s-0.995,1.468-1.393,2.285s-0.713,1.675-0.945,2.571s-0.347,1.796-0.347,2.698
			c0,0.814,0.089,1.532,0.268,2.153s0.426,1.14,0.743,1.556s0.693,0.729,1.129,0.94s0.913,0.316,1.428,0.316
			c0.316,0,0.652-0.064,1.006-0.193s0.71-0.352,1.068-0.668s0.708-0.743,1.05-1.279s0.658-1.214,0.945-2.034
			c-0.035,0.27-0.063,0.521-0.083,0.756s-0.031,0.451-0.031,0.65c0,0.574,0.062,1.05,0.185,1.428s0.296,0.68,0.519,0.905
			s0.495,0.384,0.817,0.475s0.68,0.137,1.072,0.137c0.322,0,0.693-0.085,1.112-0.255s0.86-0.4,1.323-0.69s0.936-0.628,1.419-1.015
			s0.952-0.797,1.406-1.23c0.235-0.225,0.443-0.463,0.665-0.694c-0.003,0.023-0.011,0.051-0.014,0.074
			c-0.05,0.39-0.075,0.784-0.075,1.183c0,0.498,0.048,0.93,0.145,1.296s0.256,0.67,0.479,0.91s0.516,0.419,0.879,0.536
			s0.809,0.176,1.336,0.176c0.416,0,0.863-0.088,1.34-0.264s0.967-0.416,1.468-0.721s1.003-0.658,1.507-1.06
			s0.986-0.827,1.446-1.278s0.889-0.914,1.288-1.389s0.746-0.935,1.042-1.38c0.06-0.091,0.106-0.175,0.161-0.264
			c0.011-0.015,0.025-0.029,0.037-0.044c0.258-0.334,0.51-0.688,0.756-1.063s0.494-0.778,0.743-1.209s0.514-0.912,0.795-1.445
			c0.398,0.164,0.696,0.313,0.892,0.448s0.294,0.311,0.294,0.527c0,0.152-0.044,0.361-0.132,0.628s-0.196,0.57-0.325,0.91
			s-0.27,0.709-0.422,1.107s-0.293,0.807-0.422,1.226s-0.237,0.841-0.325,1.266S30.5,23.727,30.5,24.125
			c0,1.025,0.296,1.785,0.888,2.28s1.436,0.743,2.531,0.743c0.416,0,0.869-0.094,1.358-0.281s0.995-0.439,1.516-0.756
			s1.047-0.686,1.578-1.107s1.039-0.869,1.525-1.341c0.397-0.385,0.759-0.781,1.115-1.18c0.041,0.285,0.087,0.561,0.146,0.815
			c0.19,0.826,0.473,1.504,0.848,2.034s0.841,0.923,1.397,1.178s1.198,0.383,1.924,0.383c0.592,0,1.18-0.108,1.763-0.325
			s1.151-0.518,1.705-0.901s1.085-0.839,1.595-1.366s0.986-1.104,1.429-1.731s0.845-1.292,1.208-1.995s0.674-1.421,0.932-2.153
			s0.457-1.467,0.598-2.202s0.211-1.448,0.211-2.14c0-1.365-0.242-2.36-0.729-2.984S52.82,10.159,51.848,10.159z M9.362,20.486
			c-0.217,0.275-0.448,0.495-0.694,0.659s-0.495,0.246-0.747,0.246c-0.123,0-0.242-0.015-0.356-0.044s-0.214-0.096-0.299-0.198
			s-0.152-0.25-0.202-0.443s-0.075-0.457-0.075-0.791c0-0.697,0.1-1.395,0.299-2.092s0.463-1.356,0.791-1.978
			s0.703-1.18,1.125-1.675s0.858-0.886,1.31-1.173L9.362,20.486z M85.643,11.095c-0.486-0.624-1.217-0.936-2.189-0.936
			c-0.475,0-0.928,0.101-1.361,0.303s-0.813,0.472-1.139,0.809s-0.584,0.724-0.777,1.16s-0.291,0.89-0.291,1.358
			c0,0.146,0.01,0.287,0.027,0.422s0.047,0.284,0.088,0.448c0.322,0.1,0.59,0.209,0.804,0.329s0.384,0.267,0.51,0.439
			s0.214,0.38,0.264,0.62s0.075,0.533,0.075,0.879c0,0.393-0.052,0.807-0.154,1.243s-0.238,0.867-0.408,1.292
			s-0.368,0.829-0.594,1.213s-0.461,0.723-0.707,1.016s-0.494,0.525-0.743,0.698s-0.485,0.26-0.708,0.26
			c-0.105,0-0.197-0.043-0.276-0.128s-0.142-0.256-0.188-0.514s-0.082-0.626-0.105-1.104s-0.035-1.108-0.035-1.894
			c0-0.322,0.014-0.721,0.043-1.195s0.07-0.989,0.123-1.543s0.117-1.128,0.193-1.723s0.158-1.17,0.246-1.727
			c0.732-1.025,1.382-1.959,1.947-2.8s1.059-1.604,1.48-2.289S82.543,6.437,82.83,5.9s0.52-1.015,0.698-1.437
			s0.306-0.791,0.382-1.107s0.115-0.595,0.115-0.835c0-0.434-0.055-0.805-0.163-1.112s-0.264-0.56-0.466-0.756
			s-0.447-0.341-0.734-0.435s-0.611-0.141-0.975-0.141c-0.574,0-1.147,0.168-1.719,0.505s-1.127,0.806-1.666,1.406
			s-1.057,1.315-1.555,2.145s-0.963,1.739-1.394,2.729s-0.823,2.039-1.178,3.146s-0.657,2.241-0.909,3.401s-0.447,2.326-0.585,3.498
			c-0.07,0.6-0.122,1.192-0.156,1.778c-0.221,0.279-0.441,0.555-0.661,0.806c-0.548,0.627-1.055,1.154-1.521,1.582
			s-0.878,0.754-1.235,0.979s-0.627,0.339-0.809,0.339c-0.164,0-0.289-0.04-0.377-0.119s-0.133-0.218-0.133-0.417
			c0-0.152,0.029-0.346,0.088-0.58s0.139-0.494,0.238-0.778s0.212-0.586,0.338-0.905s0.255-0.642,0.387-0.967
			s0.264-0.643,0.396-0.953s0.251-0.598,0.356-0.861c0.381-0.861,0.65-1.616,0.809-2.264s0.236-1.211,0.236-1.691
			c0-0.352-0.051-0.679-0.153-0.98s-0.258-0.565-0.466-0.791s-0.467-0.401-0.777-0.527s-0.674-0.188-1.09-0.188
			c-0.393,0-0.84,0.108-1.341,0.325s-1.038,0.568-1.612,1.055s-1.177,1.12-1.807,1.902s-1.273,1.742-1.93,2.879
			c0.24-0.439,0.451-0.916,0.633-1.429s0.332-1.009,0.449-1.489s0.205-0.923,0.264-1.327s0.088-0.718,0.088-0.94
			c0-0.27-0.023-0.5-0.07-0.69s-0.128-0.347-0.242-0.47s-0.271-0.213-0.471-0.269S61.66,9.834,61.35,9.834
			c-0.369,0-0.761,0.097-1.174,0.29s-0.822,0.449-1.227,0.769s-0.789,0.685-1.155,1.095s-0.688,0.833-0.967,1.27
			s-0.499,0.87-0.663,1.301s-0.246,0.822-0.246,1.174c0,0.363,0.023,0.741,0.07,1.134s0.143,0.759,0.289,1.099
			c-0.311,0.838-0.539,1.626-0.686,2.364s-0.219,1.45-0.219,2.136c0.012,0.539,0.106,1.055,0.285,1.547s0.425,0.924,0.738,1.296
			s0.684,0.67,1.111,0.893s0.895,0.334,1.398,0.334c0.205,0,0.379-0.008,0.522-0.022s0.269-0.039,0.374-0.074s0.2-0.084,0.285-0.146
			s0.172-0.136,0.26-0.224c0.029-0.609,0.064-1.18,0.105-1.71s0.094-1.059,0.158-1.586s0.142-1.077,0.232-1.648
			s0.201-1.202,0.33-1.894c0.352-0.486,0.686-0.89,1.002-1.209s0.604-0.574,0.861-0.765s0.477-0.323,0.658-0.399
			s0.314-0.114,0.396-0.114c0.287,0,0.43,0.144,0.43,0.431c0,0.135-0.045,0.34-0.136,0.615s-0.204,0.599-0.339,0.971
			s-0.282,0.779-0.443,1.222s-0.309,0.894-0.443,1.354s-0.248,0.916-0.339,1.367s-0.136,0.876-0.136,1.274
			c0,0.498,0.048,0.93,0.145,1.296s0.256,0.67,0.479,0.91s0.516,0.419,0.879,0.536s0.809,0.176,1.336,0.176
			c0.416,0,0.869-0.088,1.358-0.264s0.991-0.416,1.507-0.721s1.036-0.658,1.561-1.06s1.028-0.827,1.512-1.278
			c0.407-0.381,0.781-0.773,1.145-1.171c0.043,0.315,0.092,0.619,0.156,0.898c0.19,0.826,0.473,1.504,0.848,2.034
			s0.842,0.923,1.398,1.178s1.197,0.383,1.924,0.383c0.592,0,1.18-0.108,1.763-0.325s1.151-0.518,1.705-0.901
			s1.085-0.839,1.595-1.366s0.986-1.104,1.429-1.731s0.845-1.292,1.208-1.995s0.674-1.421,0.932-2.153s0.457-1.467,0.598-2.202
			s0.211-1.448,0.211-2.14C86.371,12.714,86.129,11.719,85.643,11.095z"/>
	</g>
</g>
</svg>
